<svg t="1615367134021" class="icon" viewBox="0 0 1024 1024" version="1.1" xmlns="http://www.w3.org/2000/svg" p-id="6134" width="200" height="200"><path d="M901.585455 678.493091l2.373818 4.096a34.909091 34.909091 0 0 1-11.496728 44.404364l-4.096 2.420363-349.090909 174.545455a34.909091 34.909091 0 0 1-26.205091 2.048l-5.026909-2.048-349.090909-174.545455a34.909091 34.909091 0 0 1 26.810182-64.279273l4.421818 1.861819 333.451637 166.679272 333.498181-166.725818a34.909091 34.909091 0 0 1 44.404364 11.543273z m0-174.545455l2.373818 4.096a34.909091 34.909091 0 0 1-11.496728 44.404364l-4.096 2.420364-349.090909 174.545454a34.909091 34.909091 0 0 1-26.205091 2.048l-5.026909-2.048-349.090909-174.545454a34.909091 34.909091 0 0 1 26.810182-64.279273l4.421818 1.861818 333.451637 166.679273 333.498181-166.725818a34.909091 34.909091 0 0 1 44.404364 11.543272z m-393.541819-360.634181a34.909091 34.909091 0 0 1 31.185455 0l349.090909 174.545454a34.909091 34.909091 0 0 1 0 62.464l-349.090909 174.545455a34.909091 34.909091 0 0 1-31.185455 0l-349.090909-174.545455a34.909091 34.909091 0 0 1 0-62.464z m15.592728 70.23709L252.555636 349.090909l271.080728 135.493818L794.670545 349.090909 523.636364 213.550545z"  p-id="6135"></path></svg>