<svg t="1615359137730" class="icon" viewBox="0 0 1024 1024" version="1.1" xmlns="http://www.w3.org/2000/svg" p-id="1152" width="200" height="200"><path d="M512.5 336.559c-96.682 0-175.339 78.711-175.339 175.45 0 96.738 78.657 175.44 175.338 175.44 96.69 0 175.347-78.702 175.347-175.44-0.01-96.747-78.666-175.45-175.347-175.45z m0 289.588c-62.905 0-114.08-51.206-114.08-114.147s51.175-114.147 114.08-114.147c62.903 0 114.078 51.206 114.078 114.147S575.403 626.147 512.5 626.147z m421.956-43.687l-56.783-32.803A372.315 372.315 0 0 0 879.589 512c0-12.555-0.645-25.171-1.916-37.657l56.783-32.803c21.534-12.442 28.944-40.097 16.51-61.644L846.073 198.104c-12.435-21.547-40.073-28.953-61.607-16.52l-56.783 32.804a365.783 365.783 0 0 0-65.185-37.727v-65.537C662.498 86.24 642.27 66 617.392 66H407.606c-24.869 0-45.097 20.249-45.097 45.124v65.546a366.396 366.396 0 0 0-65.185 37.727l-56.792-32.804c-21.534-12.442-49.172-5.036-61.607 16.52L74.033 379.895c-12.435 21.547-5.025 49.202 16.51 61.644l56.782 32.803A372.445 372.445 0 0 0 145.41 512c0 12.546 0.645 25.171 1.916 37.657L90.542 582.46c-21.534 12.442-28.944 40.097-16.51 61.652l104.893 181.784c12.435 21.556 40.073 28.962 61.607 16.52l56.792-32.804a366.577 366.577 0 0 0 65.185 37.718v65.546c0 24.884 20.228 45.124 45.097 45.124h209.786c24.869 0 45.106-20.249 45.106-45.124V847.33a366.884 366.884 0 0 0 65.185-37.718l56.783 32.804c21.543 12.442 49.181 5.036 61.607-16.52l104.893-181.784c12.434-21.555 5.033-49.2-16.51-61.652zM805.928 785.797l-52.801-30.503c-16.14-9.313-36.07-8.004-50.786 3.352-21.804 16.821-45.703 30.663-71.043 41.116-17.155 7.084-28.248 23.694-28.248 42.31V903H422.932v-60.927c0-18.617-11.083-35.227-28.239-42.31-25.34-10.463-49.239-24.296-71.043-41.117-14.716-11.356-34.656-12.674-50.786-3.352l-52.8 30.503L130 629.698l52.783-30.494c16.095-9.296 24.924-27.196 22.503-45.6a314.077 314.077 0 0 1-2.696-41.108c0-13.735 0.91-27.568 2.696-41.108 2.43-18.405-6.4-36.296-22.503-45.6L130 395.293l90.064-156.1 52.8 30.504c16.13 9.322 36.061 8.004 50.786-3.352 21.804-16.821 45.703-30.654 71.043-41.116 17.156-7.084 28.248-23.694 28.248-42.31V122h180.127v60.918c0 18.617 11.083 35.227 28.248 42.31a309.96 309.96 0 0 1 71.043 41.117c14.716 11.347 34.647 12.665 50.777 3.352l52.8-30.503L896 395.293l-52.783 30.495c-16.104 9.304-24.924 27.204-22.503 45.609a313.977 313.977 0 0 1 2.696 41.107c0 13.735-0.902 27.559-2.696 41.108-2.43 18.405 6.4 36.305 22.503 45.6L896 629.707l-90.072 156.09z" p-id="1153"></path></svg>