<svg t="1614045401288" class="icon" viewBox="0 0 1024 1024" version="1.1" xmlns="http://www.w3.org/2000/svg" p-id="3552" width="200" height="200"><path d="M953.342 141.241c-0.03 0 0.037 586.843 0.037 586.843 0 0.06-882.721 0.04-882.721 0.04 0.03 0-0.037-586.843-0.037-586.843 0-0.06 882.721-0.04 882.721-0.04zM0 728.084c0 38.943 31.653 70.66 70.658 70.66h882.684c39.083 0 70.658-31.622 70.658-70.66V141.28c0-38.943-31.653-70.66-70.658-70.66H70.658C31.575 70.62 0 102.243 0 141.28v586.803z m840.751 235.858c19.502 0 35.31-15.809 35.31-35.31v-1.644c0-19.501-15.808-35.31-35.31-35.31H183.25c-19.502 0-35.31 15.809-35.31 35.31v1.644c0 19.501 15.808 35.31 35.31 35.31H840.75z m-364.883-71.443h70.62v-93.755h-68.976l-1.644 93.755z" fill="" p-id="3553"></path></svg>